<?xml version="1.0"?>
<svg version="1.1" xmlns="http://www.w3.org/2000/svg" width="140" height="60" style=""><path fill="#22585c" d="M16.1318359375,45.474609375q0-0.6494140625,0.4453125-0.82568359375t0.96484375-0.17626953125q0.9091796875,0,1.5400390625,0.81640625t1.19677734375,1.79052734375t1.12255859375,1.79052734375t1.3173828125,0.81640625q0.5751953125,0,1.04833984375-0.28759765625t0.81640625-0.7236328125t0.52880859375-0.9833984375t0.185546875-1.08544921875q0-1.41015625-0.56591796875-2.9130859375t-1.447265625-3.0986328125t-1.86474609375-3.265625t-1.85546875-3.3955078125t-1.447265625-3.51611328125t-0.5751953125-3.60888671875q0-2.7275390625,1.6328125-4.23046875t4.3046875-1.5029296875q0.9091796875,0,1.8369140625,0.259765625t1.70703125,0.779296875t1.27099609375,1.2802734375t0.49169921875,1.78125q0,0.333984375-0.49169921875,0.43603515625t-0.71435546875,0.10205078125q-0.333984375,0-0.7236328125-0.08349609375t-0.5009765625-0.45458984375t-0.3154296875-0.853515625t-0.51025390625-0.89990234375t-0.7236328125-0.7236328125t-0.91845703125-0.30615234375q-0.8349609375,0-1.41943359375,0.34326171875t-0.9462890625,0.91845703125t-0.5380859375,1.28955078125t-0.17626953125,1.47509765625q0,1.78125,0.6123046875,3.59033203125t1.521484375,3.599609375t1.97607421875,3.53466796875t1.97607421875,3.3955078125t1.521484375,3.228515625t0.6123046875,2.9873046875q0,1.26171875-0.59375,2.1337890625t-1.5029296875,1.41943359375t-2.01318359375,0.7978515625t-2.16162109375,0.25048828125q-1.1318359375,0-2.3193359375-0.45458984375t-2.1337890625-1.25244140625t-1.55859375-1.86474609375t-0.6123046875-2.31005859375z M32.824931640625,41.6337890625q0-1.70703125,0.39892578125-3.34912109375t0.67724609375-3.27490234375q0.07421875-0.4267578125,0.58447265625-0.52880859375t0.86279296875-0.10205078125q0.6123046875,0,0.9833984375,0.185546875q0.1484375,0.07421875,0.2783203125,0.1669921875t0.1298828125,0.2412109375q0,1.595703125-0.38037109375,3.1171875t-0.38037109375,3.228515625q0,0.5751953125,0.08349609375,1.08544921875t0.15771484375,1.01123046875l0.111328125,0.5380859375q0,0.1484375,0.0185546875,0.259765625t0.0556640625,0.259765625q0,0.333984375-0.47314453125,0.45458984375t-0.82568359375,0.12060546875q-0.5380859375,0-0.99267578125-0.21337890625t-0.71435546875-0.73291015625l-0.259765625-0.5380859375q-0.22265625-0.4267578125-0.22265625-0.95556640625t-0.0927734375-0.97412109375z M34.012431640625,30.4638671875l0-0.3525390625q0-0.8720703125,0.43603515625-1.55859375t1.30810546875-0.6865234375q0.111328125,0,0.21337890625,0.0185546875t0.21337890625,0.0185546875q0.22265625,0.037109375,0.58447265625,0.17626953125t0.36181640625,0.43603515625l0,0.037109375q-0.07421875,0.1484375-0.0927734375,0.30615234375t-0.0927734375,0.26904296875l0.037109375-0.037109375q-0.22265625,0.5751953125-0.36181640625,0.927734375t-0.30615234375,0.56591796875t-0.41748046875,0.30615234375t-0.71435546875,0.0927734375q-0.07421875,0-0.259765625-0.0185546875t-0.39892578125-0.07421875t-0.36181640625-0.1484375t-0.1484375-0.2783203125z M40.92720703125,41.8564453125q0-1.447265625,0.30615234375-2.62548828125t0.97412109375-1.99462890625t1.75341796875-1.27099609375t2.64404296875-0.45458984375q0.8720703125,0,1.78125,0.23193359375t1.55859375,0.86279296875q0-0.37109375,0.07421875-1.53076171875t0.185546875-2.69970703125t0.23193359375-3.228515625t0.21337890625-3.1357421875t0.1669921875-2.4306640625t0.111328125-1.11328125q0.185546875-0.5380859375,0.6865234375-0.64013671875t0.9462890625-0.10205078125q1.1689453125,0,1.43798828125,0.37109375t0.26904296875,1.484375q0,4.0634765625-0.36181640625,8.08984375t-0.36181640625,8.08984375q0,2.6162109375,0.10205078125,5.26025390625t0.73291015625,5.20458984375l0.2041015625,0.185546875l0.111328125,0.333984375l-0.2783203125,0.4267578125q-0.705078125,0.4453125-1.6328125,0.4453125l-0.07421875,0q-0.9462890625,0-1.744140625-0.4453125q-0.296875-0.185546875-0.49169921875-1.10400390625t-0.30615234375-2.0224609375t-0.1669921875-2.12451171875t-0.0927734375-1.447265625q-0.6494140625,1.484375-1.77197265625,2.55126953125t-2.82958984375,1.06689453125q-1.3359375,0-2.189453125-0.5751953125t-1.32666015625-1.4658203125t-0.66796875-1.99462890625t-0.19482421875-2.19873046875z M43.17232421875,41.9677734375q0,0.4267578125,0.10205078125,1.26171875t0.32470703125,1.669921875t0.62158203125,1.484375t1.04833984375,0.6494140625q0.8720703125-0.4267578125,1.5771484375-1.41943359375t1.21533203125-2.189453125t0.7978515625-2.3935546875t0.28759765625-2.06884765625q0-1.0947265625-0.7978515625-1.818359375t-1.9111328125-0.7236328125q-0.333984375,0-0.67724609375,0.1298828125t-0.64013671875,0.296875q-0.6865234375,0.6494140625-1.06689453125,1.17822265625t-0.5751953125,1.0947265625t-0.25048828125,1.25244140625t-0.0556640625,1.595703125z M58.492373046875,42.83984375q0-1.298828125,0.28759765625-3.0615234375t0.97412109375-3.33984375t1.80908203125-2.68115234375t2.82958984375-1.10400390625q1.595703125,0,2.3935546875,0.91845703125t0.7978515625,2.47705078125q0,1.0205078125-0.38037109375,2.23583984375t-1.08544921875,2.30078125t-1.669921875,1.80908203125t-2.15234375,0.7236328125l-0.482421875-0.037109375q0,0.5009765625,0.1484375,1.34521484375t0.43603515625,1.67919921875t0.7421875,1.4658203125t1.10400390625,0.630859375q0.9462890625,0,1.818359375-0.7607421875t1.6513671875-1.6884765625t1.447265625-1.6884765625t1.224609375-0.7607421875q0.296875,0,0.6123046875,0.0927734375t0.3525390625,0.51953125q0,0.259765625-0.13916015625,0.4267578125t-0.25048828125,0.37109375q-0.5751953125,0.9833984375-1.25244140625,1.8740234375t-1.53076171875,1.6142578125t-1.86474609375,1.14111328125t-2.23583984375,0.41748046875q-1.595703125,0-2.6533203125-0.56591796875t-1.70703125-1.521484375t-0.93701171875-2.2080078125t-0.28759765625-2.62548828125z M61.813662109375,41.4296875l0.51953125,0.4638671875q0.37109375,0.333984375,0.7421875,0.1484375t0.66796875-0.67724609375t0.54736328125-1.21533203125t0.4453125-1.484375t0.28759765625-1.484375t0.0927734375-1.2060546875l0-0.630859375t-0.0556640625-0.66796875t-0.19482421875-0.52880859375t-0.43603515625-0.26904296875q-0.0927734375-0.0185546875-0.1669921875-0.0185546875q-0.630859375,0-1.076171875,0.7978515625q-0.482421875,0.890625-0.779296875,2.16162109375t-0.4267578125,2.60693359375t-0.1669921875,2.00390625z M74.04435546875,22.81005859375q-0.04638671875-0.56591796875,0.07421875-0.9833984375t0.482421875-0.6865234375t1.15966796875-0.26904296875l2.9873046875,0q0.6123046875,0,1.60498046875,0.06494140625t2.1337890625,0.19482421875t2.27294921875,0.39892578125t2.06884765625,0.66796875t1.521484375,0.9833984375t0.58447265625,1.38232421875q0,1.1318359375-0.65869140625,2.12451171875t-1.6513671875,1.79052734375t-2.0966796875,1.41943359375t-1.97607421875,1.12255859375q3.451171875,0.7607421875,5.3994140625,3.154296875t1.9482421875,5.974609375q0,1.892578125-0.7236328125,3.73876953125t-1.97607421875,3.33056640625t-2.96875,2.3935546875t-3.68310546875,0.9091796875q-0.259765625,0-0.58447265625-0.0556640625t-0.59375-0.17626953125t-0.4638671875-0.34326171875t-0.19482421875-0.5751953125q0-1.6328125,1.7626953125-1.6328125q0.296875,0,0.69580078125,0.08349609375t0.62158203125,0.34326171875q1.0205078125-0.4267578125,1.86474609375-1.3544921875t1.4287109375-2.06884765625t0.9091796875-2.3935546875t0.32470703125-2.27294921875q0-1.224609375-0.36181640625-2.49560546875t-1.04833984375-2.3564453125t-1.6884765625-1.82763671875t-2.30078125-0.927734375q-0.333984375-0.037109375-0.73291015625-0.0556640625l-0.7978515625-0.037109375t-0.779296875-0.111328125t-0.65869140625-0.296875q0.1484375,3.080078125,0.38037109375,6.1416015625t0.62158203125,6.1416015625q0.1484375,0.1484375,0.2041015625,0.43603515625t0.0927734375,0.6123046875t0.037109375,0.62158203125l0,0.5009765625q0,0.333984375-0.22265625,0.54736328125t-0.52880859375,0.34326171875t-0.6494140625,0.1669921875t-0.60302734375,0.037109375q-0.8349609375,0-1.2802734375-0.22265625t-0.630859375-0.6494140625t-0.2412109375-0.97412109375t-0.0927734375-1.19677734375q-0.5009765625-5.1767578125-0.7236328125-10.2421875t-0.22265625-10.2421875q0-0.6123046875-0.04638671875-1.17822265625z M77.4676953125,22.021484375q0,2.2822265625,0.1484375,4.57373046875t0.259765625,4.57373046875q0.8349609375-0.5009765625,2.189453125-1.17822265625t2.62548828125-1.49365234375t2.18017578125-1.7998046875t0.9091796875-2.1337890625q0-0.9091796875-1.076171875-1.38232421875t-2.5048828125-0.705078125t-2.79248046875-0.28759765625t-1.93896484375-0.1669921875z M93.678369140625,42.0791015625q0-1.26171875,0.34326171875-2.4306640625t1.02978515625-2.08740234375t1.71630859375-1.4658203125t2.38427734375-0.54736328125q0.8349609375,0,1.84619140625,0.25048828125t1.90185546875,0.7421875t1.484375,1.25244140625t0.59375,1.744140625q0,0.4638671875-0.15771484375,0.705078125t-0.64013671875,0.2412109375l-0.2041015625-0.037109375q0.5380859375,1.447265625,0.927734375,2.96875t0.7607421875,3.04296875q0.1484375,0.296875,0.22265625,0.52880859375t0.07421875,0.45458984375q0,0.296875-0.1669921875,0.49169921875t-0.43603515625,0.28759765625t-0.556640625,0.1298828125t-0.51025390625,0.037109375q-0.7978515625,0-1.19677734375-0.2783203125t-0.5751953125-0.7607421875t-0.21337890625-1.08544921875t-0.1484375-1.21533203125q-0.22265625,0.7236328125-0.58447265625,1.41015625t-0.853515625,1.23388671875t-1.15966796875,0.8720703125t-1.5029296875,0.32470703125q-1.224609375,0-2.0595703125-0.705078125t-1.34521484375-1.73486328125t-0.7421875-2.19873046875t-0.23193359375-2.1708984375z M96.313134765625,41.8193359375q0,0.6865234375,0.0927734375,1.447265625t0.30615234375,1.5029296875t0.54736328125,1.40087890625t0.8349609375,1.15966796875q0.9091796875-0.9833984375,1.34521484375-2.3935546875t0.779296875-2.71826171875t0.779296875-2.2451171875t1.34521484375-0.93701171875q0.5751953125,0,0.96484375,0.2041015625q-0.185546875-0.4638671875-0.6123046875-0.89990234375t-0.95556640625-0.7978515625t-1.0947265625-0.59375t-1.06689453125-0.23193359375q-0.1484375,0-0.34326171875,0.04638671875t-0.30615234375,0.00927734375q-0.7607421875,0.22265625-1.25244140625,0.77001953125t-0.7978515625,1.28955078125t-0.43603515625,1.521484375t-0.1298828125,1.4658203125z M109.75916015625,36.8837890625q0-0.7607421875,0.26904296875-1.2802734375t1.14111328125-0.51953125q0.333984375,0,0.8349609375,0.10205078125t0.5751953125,0.51025390625q0.185546875,1.0947265625,0.2041015625,2.375t0.1298828125,2.412109375q0.4267578125-0.8349609375,1.0947265625-1.7998046875t1.521484375-1.78125t1.85546875-1.3544921875t2.041015625-0.5380859375q0.07421875,0,0.2783203125,0.0556640625t0.38037109375,0.15771484375t0.21337890625,0.23193359375t-0.2041015625,0.2412109375q-0.07421875,0.22265625-0.3154296875,0.26904296875t-0.4267578125,0.04638671875q-0.111328125,0-0.3525390625-0.0927734375q-1.373046875,0.7236328125-2.337890625,1.966796875t-1.5771484375,2.75537109375t-0.890625,3.19140625t-0.2783203125,3.27490234375q0,0.7978515625-0.36181640625,0.96484375t-1.15966796875,0.1669921875q-0.4267578125,0-0.89990234375-0.0927734375t-0.65869140625-0.59375q-0.333984375-1.0576171875-0.54736328125-2.4306640625t-0.32470703125-2.82958984375t-0.15771484375-2.86669921875t-0.04638671875-2.5419921875z"/><path fill="#96b0ad" d=""/></svg>
